<svg xmlns="http://www.w3.org/2000/svg" width="720" height="180" viewBox="0 0 720 180">
<style> .title { font: 700 16px "Segoe UI", Roboto, Arial; fill:#111; } .label { font: 600 13px "Segoe UI", Roboto, Arial; fill:#222 } .value { font: 600 12px "Segoe UI", Roboto, Arial; fill:#fff } .sub { font: 400 11px "Segoe UI", Roboto, Arial; fill:#555 } .bar-bg { fill: #eee } .bar-winner { fill: #2b8cff } .bar-user { fill: #37b24d } </style>
<rect x="0" y="0" width="720" height="180" fill="white"/>
<text x="20" y="32" class="title">ROC AUC — Leaderboard Comparison</text>
<text x="20" y="52" class="sub">Higher is better. Your score vs competition winner.</text>
<text x="26" y="92" class="label">Winner (Top) — 90.14</text>
<rect x="170" y="72" width="520" height="32" class="bar-bg" rx="6" ry="6"/>
<rect x="170" y="72" width="468.728" height="32" class="bar-winner" rx="6" ry="6"/>
<text x="594.7280000000001" y="93" class="value">90.14</text>
<text x="26" y="142" class="label">You (Rank 177) — 70.90</text>
<rect x="170" y="122" width="520" height="32" class="bar-bg" rx="6" ry="6"/>
<rect x="170" y="122" width="368.68000000000006" height="32" class="bar-user" rx="6" ry="6"/>
<text x="494.68000000000006" y="143" class="value">70.90</text>
<line x1="20" y1="188" x2="700" y2="188" stroke="#efefef" stroke-width="1"/>
<rect x="26" y="200" width="14" height="14" class="bar-winner" rx="3" ry="3"/>
<text x="48" y="212" class="sub">Winner (Top)</text>
<rect x="170" y="200" width="14" height="14" class="bar-user" rx="3" ry="3"/>
<text x="192" y="212" class="sub">Your submission</text>
</svg>